<svg width="16" height="16" viewBox="0 0 16 16" fill="none" xmlns="http://www.w3.org/2000/svg">
<path d="M6.00016 14.8363C6.36835 14.8363 6.66683 14.5378 6.66683 14.1696C6.66683 13.8014 6.36835 13.5029 6.00016 13.5029C5.63197 13.5029 5.3335 13.8014 5.3335 14.1696C5.3335 14.5378 5.63197 14.8363 6.00016 14.8363Z" stroke="white" stroke-width="1.33333" stroke-linecap="round" stroke-linejoin="round"/>
<path d="M13.3332 14.8363C13.7014 14.8363 13.9998 14.5378 13.9998 14.1696C13.9998 13.8014 13.7014 13.5029 13.3332 13.5029C12.965 13.5029 12.6665 13.8014 12.6665 14.1696C12.6665 14.5378 12.965 14.8363 13.3332 14.8363Z" stroke="white" stroke-width="1.33333" stroke-linecap="round" stroke-linejoin="round"/>
<path d="M0.666504 0.835938H3.33317L5.11984 9.7626C5.1808 10.0695 5.34778 10.3452 5.59153 10.5415C5.83529 10.7377 6.1403 10.8419 6.45317 10.8359H12.9332C13.246 10.8419 13.551 10.7377 13.7948 10.5415C14.0386 10.3452 14.2055 10.0695 14.2665 9.7626L15.3332 4.16927H3.99984" stroke="white" stroke-width="1.33333" stroke-linecap="round" stroke-linejoin="round"/>
</svg>
