<svg width="14" height="14" viewBox="0 0 14 14" fill="none" xmlns="http://www.w3.org/2000/svg">
<path fill-rule="evenodd" clip-rule="evenodd" d="M3.16683 7.66683C5.8795 7.66683 6.00016 8.58683 6.00016 10.5002C6.00016 11.4588 6.00016 12.1408 5.5975 12.6402C5.13416 13.2155 4.29083 13.3335 3.16683 13.3335C2.04283 13.3335 1.1995 13.2155 0.736163 12.6402C0.333496 12.1408 0.333496 11.4595 0.333496 10.5168L0.833496 10.5002H0.333496C0.333496 8.58683 0.454163 7.66683 3.16683 7.66683ZM10.5002 7.66683C13.2128 7.66683 13.3335 8.58683 13.3335 10.5002C13.3335 11.4588 13.3335 12.1408 12.9308 12.6402C12.4675 13.2155 11.6242 13.3335 10.5002 13.3335C9.37616 13.3335 8.53283 13.2155 8.0695 12.6402C7.66683 12.1408 7.66683 11.4595 7.66683 10.5168L8.16683 10.5002H7.66683C7.66683 8.58683 7.7875 7.66683 10.5002 7.66683ZM3.30427 8.66713L3.16683 8.66683C1.42751 8.66683 1.33832 8.79164 1.33374 10.2515L1.33402 10.8203C1.33718 11.4009 1.35931 11.8204 1.51416 12.0135C1.69083 12.2322 2.2155 12.3335 3.16683 12.3335C4.11816 12.3335 4.64283 12.2315 4.8195 12.0128C5.00016 11.7882 5.00016 11.2548 5.00016 10.5162C5.00016 8.84936 5.00016 8.67497 3.30427 8.66713ZM10.6376 8.66713L10.5002 8.66683C8.76085 8.66683 8.67165 8.79164 8.66708 10.2515L8.66736 10.8203C8.67052 11.4009 8.69264 11.8204 8.8475 12.0135C9.02416 12.2322 9.54883 12.3335 10.5002 12.3335C11.4515 12.3335 11.9762 12.2315 12.1528 12.0128C12.3335 11.7882 12.3335 11.2548 12.3335 10.5162C12.3335 8.84936 12.3335 8.67497 10.6376 8.66713ZM3.16683 0.333496C5.8795 0.333496 6.00016 1.2535 6.00016 3.16683C6.00016 4.1255 6.00016 4.8075 5.5975 5.30683C5.13416 5.88216 4.29083 6.00016 3.16683 6.00016C2.04283 6.00016 1.1995 5.88216 0.736163 5.30683C0.333496 4.8075 0.333496 4.12616 0.333496 3.1835L0.833496 3.16683H0.333496C0.333496 1.2535 0.454163 0.333496 3.16683 0.333496ZM10.5002 0.333496C13.2128 0.333496 13.3335 1.2535 13.3335 3.16683C13.3335 4.1255 13.3335 4.8075 12.9308 5.30683C12.4675 5.88216 11.6242 6.00016 10.5002 6.00016C9.37616 6.00016 8.53283 5.88216 8.0695 5.30683C7.66683 4.8075 7.66683 4.12616 7.66683 3.1835L8.16683 3.16683H7.66683C7.66683 1.2535 7.7875 0.333496 10.5002 0.333496ZM3.30427 1.33379L3.16683 1.3335C1.42751 1.3335 1.33832 1.45831 1.33374 2.9182L1.33402 3.48695C1.33718 4.06759 1.35931 4.48702 1.51416 4.68016C1.69083 4.89883 2.2155 5.00016 3.16683 5.00016C4.11816 5.00016 4.64283 4.89816 4.8195 4.6795C5.00016 4.45483 5.00016 3.9215 5.00016 3.18283C5.00016 1.51603 5.00016 1.34164 3.30427 1.33379ZM10.6376 1.33379L10.5002 1.3335C8.76085 1.3335 8.67165 1.45831 8.66708 2.9182L8.66736 3.48695C8.67052 4.06759 8.69264 4.48702 8.8475 4.68016C9.02416 4.89883 9.54883 5.00016 10.5002 5.00016C11.4515 5.00016 11.9762 4.89816 12.1528 4.6795C12.3335 4.45483 12.3335 3.9215 12.3335 3.18283C12.3335 1.51603 12.3335 1.34164 10.6376 1.33379Z" fill="white"/>
</svg>
