<svg width="16" height="12" viewBox="0 0 16 12" fill="none" xmlns="http://www.w3.org/2000/svg">
<path fill-rule="evenodd" clip-rule="evenodd" d="M7.92424 7.60917L7.99951 7.60919L8.1679 7.60976C9.45496 7.61824 12.3962 7.74826 12.3962 9.74184C12.3962 11.7223 9.55749 11.8515 8.18796 11.8599L7.68056 11.8599C6.39343 11.8514 3.45157 11.7216 3.45157 9.7305C3.45157 7.74752 6.39343 7.61819 7.68056 7.60976L7.84896 7.60919C7.87508 7.60917 7.90019 7.60917 7.92424 7.60917ZM7.92424 8.60917C6.34024 8.60917 4.45157 8.80384 4.45157 9.7305C4.45157 10.6362 6.22751 10.8479 7.77946 10.8599L7.92424 10.8605C9.50824 10.8605 11.3962 10.6665 11.3962 9.74184C11.3962 8.80584 9.50824 8.60917 7.92424 8.60917ZM13.2266 7.33864C14.842 7.58064 15.1813 8.3393 15.1813 8.9333C15.1813 9.29597 15.0386 9.95797 14.0853 10.3213C14.0266 10.3433 13.9666 10.354 13.9073 10.354C13.706 10.354 13.516 10.2313 13.44 10.032C13.3413 9.77397 13.4713 9.48464 13.7293 9.38664C14.1813 9.21464 14.1813 9.02464 14.1813 8.9333C14.1813 8.6413 13.81 8.4373 13.078 8.32797C12.8053 8.28664 12.6166 8.03264 12.6573 7.75864C12.698 7.4853 12.9513 7.3033 13.2266 7.33864ZM3.1905 7.75864C3.23117 8.03264 3.0425 8.28664 2.76984 8.32797C2.03784 8.4373 1.6665 8.6413 1.6665 8.9333C1.6665 9.02464 1.6665 9.21397 2.11917 9.38664C2.37717 9.48464 2.50717 9.77397 2.4085 10.032C2.3325 10.2313 2.1425 10.354 1.94117 10.354C1.88184 10.354 1.82184 10.3433 1.76317 10.3213C0.809171 9.9573 0.666504 9.2953 0.666504 8.9333C0.666504 8.33997 1.00584 7.58064 2.62184 7.33864C2.89717 7.30397 3.14917 7.4853 3.1905 7.75864ZM7.92424 0.666504C9.60424 0.666504 10.9702 2.03317 10.9702 3.7125C10.9702 5.39184 9.60424 6.7585 7.92424 6.7585H7.90624C7.0929 6.75584 6.3309 6.43717 5.76024 5.86117C5.18824 5.28584 4.87557 4.52184 4.87888 3.7105C4.87888 2.03317 6.2449 0.666504 7.92424 0.666504ZM7.92424 1.6665C6.79624 1.6665 5.87889 2.5845 5.87889 3.7125C5.8769 4.25917 6.08624 4.7705 6.46957 5.1565C6.8529 5.5425 7.36357 5.7565 7.90757 5.7585L7.92424 6.2585V5.7585C9.05224 5.7585 9.97024 4.84117 9.97024 3.7125C9.97024 2.5845 9.05224 1.6665 7.92424 1.6665ZM12.0502 1.3195C13.2222 1.51217 14.0736 2.51484 14.0736 3.7035C14.0709 4.90017 13.1769 5.92684 11.9936 6.09284C11.9702 6.09617 11.9469 6.0975 11.9242 6.0975C11.6789 6.0975 11.4649 5.91684 11.4296 5.66684C11.3916 5.39284 11.5816 5.14017 11.8556 5.10217C12.5489 5.00484 13.0722 4.4035 13.0736 3.70217C13.0736 3.00684 12.5749 2.41884 11.8876 2.30617C11.6156 2.2615 11.4309 2.00417 11.4756 1.7315C11.5209 1.45884 11.7762 1.27617 12.0502 1.3195ZM4.3729 1.7315C4.41757 2.00417 4.2329 2.2615 3.9609 2.30617C3.27357 2.41884 2.7749 3.00684 2.7749 3.7035C2.77624 4.4035 3.29957 5.0055 3.99224 5.10217C4.26624 5.14017 4.45624 5.39284 4.41824 5.66684C4.3829 5.91684 4.1689 6.0975 3.92357 6.0975C3.9009 6.0975 3.87757 6.09617 3.85424 6.09284C2.6709 5.92684 1.77757 4.90017 1.7749 3.70484C1.7749 2.51484 2.62624 1.51217 3.79824 1.3195C4.0789 1.2755 4.32757 1.46017 4.3729 1.7315Z" fill="white"/>
</svg>
